<svg width="35" height="34" viewBox="0 0 35 34" fill="none" xmlns="http://www.w3.org/2000/svg">
<path d="M35 24.1136V3.29631C35 1.25703 33.0528 -0.292748 30.9171 0.0468503L11.6671 3.10798C9.98291 3.3758 8.75 4.74917 8.75 6.35742V21.0257C8.19066 20.8903 7.60427 20.8181 7 20.8181C3.134 20.8181 0 23.7691 0 27.4091C0 31.0491 3.134 34 7 34C10.866 34 14 31.0491 14 27.4091V7.75022L29.75 5.24566V17.7303C29.1907 17.5948 28.6043 17.5227 28 17.5227C24.1341 17.5227 21 20.4736 21 24.1136C21 27.7536 24.1341 30.7045 28 30.7045C31.8659 30.7045 35 27.7536 35 24.1136Z" fill="black"/>
</svg>
